<svg xmlns="http://www.w3.org/2000/svg" width="75" height="75" viewBox="0 0 75 75" fill="none"><g clip-path="url(#clip0_1050_319)"><path d="M10.3859 0H64.4958C65.5432 0.120117 66.5744 0.490723 67.3903 1.17188C68.6135 2.15625 69.343 3.70898 69.3239 5.2793C69.3283 14.2134 69.3239 23.146 69.3269 32.0801C69.3254 32.7554 69.3503 33.4395 69.217 34.1074C68.7688 36.5098 66.4558 38.3687 64.0109 38.291C50.486 38.2939 36.9611 38.2866 23.4377 38.2939C22.8737 38.3013 22.1618 38.3613 21.8191 37.8076C21.3166 37.1396 21.8674 36.0718 22.7024 36.1011C36.4734 36.0835 50.2458 36.0996 64.0183 36.0938C65.1638 36.1274 66.2917 35.4609 66.7985 34.4312C67.0915 33.8892 67.1428 33.2607 67.1311 32.6558C67.1193 23.4814 67.1399 14.3057 67.1208 5.12988C67.1164 3.51562 65.6267 2.12109 64.0183 2.19727C46.3405 2.19727 28.6643 2.19727 10.9865 2.19727C9.37667 2.1167 7.88253 3.51416 7.87814 5.12988C7.86202 14.2119 7.8796 23.2939 7.86935 32.3745C7.86935 32.959 7.84445 33.564 8.06271 34.1177C8.39523 35.0244 9.18478 35.7451 10.1179 35.9883C10.6906 36.1362 11.2868 36.0894 11.8713 36.0938C14.0202 36.0967 16.1677 36.0864 18.3166 36.0981C18.9143 36.0732 19.4533 36.6079 19.4284 37.207C19.4358 37.7974 18.8996 38.3159 18.3078 38.2852C15.7238 38.2866 13.1399 38.3101 10.5573 38.2734C7.9089 38.1621 5.63839 35.7539 5.67794 33.104C5.67062 23.8286 5.67501 14.5532 5.67648 5.2793C5.65597 3.73975 6.3547 2.21631 7.53976 1.2334C8.3381 0.541992 9.35177 0.159668 10.3859 0Z" fill="#547293"></path><path d="M14.7013 11.2823C14.7877 10.7594 15.2945 10.3595 15.8233 10.3917C20.2501 10.3815 24.6637 11.8902 28.1559 14.6149C30.2359 16.1998 31.944 18.2286 33.3077 20.4523C36.0836 17.4508 40.1529 15.6842 44.2428 15.7237C44.713 15.7311 45.1437 16.0929 45.2491 16.5499C45.4 17.089 45.0543 17.6998 44.5196 17.858C44.1871 17.9386 43.8414 17.9151 43.5045 17.9371C40.0416 18.1129 36.69 19.7901 34.462 22.4444C34.1046 22.837 33.8321 23.42 33.2462 23.4903C32.7189 23.59 32.2223 23.2369 32.0245 22.7623C30.3092 19.2613 27.4601 16.3155 23.9781 14.5504C21.5069 13.2833 18.7369 12.6124 15.9625 12.589C15.2403 12.6886 14.5343 12.0148 14.7013 11.2823Z" fill="#547293"></path><path d="M52.5235 11.9737C54.1231 11.5943 55.8692 11.8829 57.2535 12.7735C58.7125 13.7008 59.7554 15.2608 60.0294 16.9688C60.296 18.5391 59.9224 20.2061 59.004 21.5069C58.043 22.9044 56.4815 23.8741 54.7984 24.0968C52.9117 24.3751 50.918 23.7042 49.5792 22.3477C48.066 20.8682 47.4244 18.5787 47.94 16.5279C48.4542 14.3087 50.3043 12.4791 52.5235 11.9737ZM53.0509 14.1051C51.0191 14.524 49.585 16.711 50.0347 18.7427C50.3878 20.8184 52.5894 22.3331 54.6563 21.8966C56.7496 21.5655 58.2891 19.3565 57.8541 17.2764C57.5216 15.1099 55.1793 13.5543 53.0509 14.1051Z" fill="#547293"></path><path d="M15.4338 15.0235C15.8439 14.921 16.2731 14.984 16.6906 14.9957C20.423 15.2037 24.0558 16.8092 26.7219 19.4298C29.0671 21.7149 30.6755 24.7486 31.2233 27.9771C31.3493 28.5162 30.9977 29.1021 30.4675 29.2515C29.9723 29.4141 29.3879 29.1578 29.1681 28.6876C29.048 28.3931 29.0114 28.0753 28.944 27.7677C28.2673 24.6182 26.4011 21.7471 23.8141 19.8311C21.5261 18.1114 18.6755 17.1754 15.8161 17.1607C15.2888 17.1842 14.7819 16.7843 14.6999 16.2598C14.593 15.7384 14.9269 15.1788 15.4338 15.0235Z" fill="#547293"></path><path d="M42.2755 20.4741C42.9684 20.3555 43.6745 20.2647 44.379 20.3145C45.1598 20.4141 45.5641 21.4512 45.0587 22.0562C44.672 22.607 43.9425 22.4663 43.3668 22.5366C40.1632 22.8179 37.276 25.1968 36.3869 28.2862C36.2872 28.7564 35.9562 29.2105 35.4537 29.2822C34.7301 29.4404 34.0036 28.711 34.1911 27.9888C35.1447 24.2066 38.4347 21.1538 42.2755 20.4741Z" fill="#547293"></path><path d="M36.362 42.3648C36.6989 41.7407 37.3815 41.3365 38.089 41.335C39.5524 41.3247 41.0158 41.3189 42.4792 41.3379C43.4709 41.3496 44.3571 42.208 44.3864 43.2027C44.423 44.3775 44.3849 45.5523 44.4025 46.7285C44.3996 47.25 44.4362 47.8081 44.174 48.2813C43.9865 48.6577 43.6496 48.9258 43.3332 49.1924C42.6872 49.7139 42.0866 50.3042 41.3469 50.6997C41.3542 51.1758 41.3556 51.6519 41.3542 52.128C49.6393 52.1294 57.923 52.1294 66.2082 52.128C66.8278 52.1397 67.487 52.0533 68.0627 52.3374C68.8332 52.6831 69.34 53.5078 69.3239 54.3501C69.3268 55.3726 69.3327 56.3965 69.321 57.4204C69.3122 58.2583 68.7761 59.0655 67.9982 59.3848C67.4841 59.6192 66.9069 59.5547 66.3605 59.562C58.0256 59.5576 49.6921 59.5635 41.3586 59.5591C41.3498 60.5581 41.3556 61.5572 41.3556 62.5562C49.9382 62.5635 58.5207 62.5547 67.1032 62.5606C68.0759 62.5371 69.009 63.23 69.2463 64.1778C69.3971 64.8911 69.299 65.6294 69.3254 66.3545C69.2858 67.2349 69.4938 68.2119 68.9738 68.9927C68.5256 69.7281 67.6335 70.0664 66.8 70.0034C58.3185 69.9976 49.8371 69.9991 41.3542 70.002C41.3425 71.3247 41.3747 72.649 41.341 73.9717C41.3395 74.4741 40.9294 74.8418 40.487 75H40.071C39.5993 74.8784 39.173 74.4873 39.1686 73.9761C39.1364 72.6519 39.1686 71.3262 39.1554 70.002C35.1843 69.9932 31.2116 70.0108 27.2404 69.9932C26.1447 69.9961 25.1486 69.0586 25.1017 67.96C25.0842 66.8438 25.0856 65.7246 25.1017 64.607C25.1413 63.5069 26.1374 62.5591 27.2375 62.5635C31.2101 62.5503 35.1828 62.565 39.1554 62.5562C39.1584 61.5586 39.1584 60.5596 39.1554 59.562C35.1828 59.5562 31.2116 59.565 27.2389 59.5576C26.2253 59.5635 25.2878 58.7608 25.1296 57.7617C25.0461 57.0161 25.1135 56.2632 25.0929 55.5161C25.1193 54.7823 24.9743 53.9942 25.3361 53.3174C25.7126 52.5645 26.5475 52.0928 27.3854 52.128C31.3083 52.1294 35.2311 52.1294 39.1554 52.128C39.1584 51.646 39.1584 51.1641 39.154 50.6836C38.3366 50.2574 37.695 49.5806 36.9758 49.0181C36.4865 48.6475 36.1262 48.0835 36.1203 47.4566C36.0954 46.2847 36.1232 45.1128 36.1086 43.9424C36.11 43.4107 36.0822 42.8394 36.362 42.3648ZM38.3117 43.5249C38.3102 44.7759 38.3014 46.0283 38.3161 47.2808C38.8259 47.6807 39.3049 48.1187 39.8146 48.5186C40.0446 48.7237 40.4079 48.7486 40.6511 48.5523C41.1828 48.1465 41.6794 47.6939 42.1979 47.2735C42.2067 46.024 42.2023 44.7744 42.2009 43.5264C40.9045 43.5235 39.6081 43.5264 38.3117 43.5249ZM27.2858 54.3413C27.2961 55.3477 27.2858 56.3555 27.2902 57.3633C31.2482 57.356 35.2048 57.3794 39.1628 57.3516C39.1496 56.3438 39.1613 55.336 39.1554 54.3282C35.1989 54.334 31.2409 54.3076 27.2858 54.3413ZM41.3527 54.334C41.3556 55.3433 41.3513 56.3526 41.3556 57.3633C46.5983 57.3633 51.8395 57.3633 57.0822 57.3633C57.0851 56.3511 57.0837 55.3389 57.0837 54.3282C51.8395 54.3282 46.5969 54.3179 41.3527 54.334ZM59.2824 54.3282C59.278 55.3374 59.2839 56.3467 59.2795 57.3574C61.8957 57.3677 64.5134 57.3648 67.1296 57.3589C67.1266 56.3482 67.131 55.3374 67.1266 54.3282C64.5119 54.3252 61.8972 54.3252 59.2824 54.3282ZM27.2887 64.7578C27.2902 65.7715 27.2902 66.7866 27.2902 67.8018C31.2453 67.8047 35.2004 67.8018 39.1554 67.8032C39.1584 66.7866 39.1569 65.7715 39.1554 64.7564C35.2004 64.7564 31.2453 64.7534 27.2887 64.7578ZM41.3527 64.7578C41.3542 65.7715 41.3542 66.7866 41.3542 67.8018C44.3879 67.8047 47.423 67.8018 50.4582 67.8032C50.4611 66.7866 50.4596 65.7715 50.4582 64.7564C47.423 64.7564 44.3879 64.7534 41.3527 64.7578ZM52.6584 64.7564C52.6569 65.7715 52.6555 66.7866 52.6584 67.8032C57.4821 67.8018 62.3044 67.8032 67.1266 67.8018C67.1296 66.7866 67.1296 65.7715 67.1266 64.7564C62.3044 64.7549 57.4806 64.7564 52.6584 64.7564Z" fill="#547293"></path><path d="M7.35655 52.1821C7.68468 52.1206 8.02013 52.1279 8.35265 52.1265C11.817 52.1367 15.2814 52.1177 18.7457 52.1367C19.8473 52.1279 20.8185 53.1064 20.8229 54.2021C20.8346 55.27 20.8273 56.3394 20.8273 57.4072C20.8404 58.2788 20.2735 59.1313 19.4474 59.4229C19.0401 59.5928 18.5919 59.5605 18.1612 59.562C14.6925 59.5561 11.2223 59.5649 7.75353 59.5591C6.68712 59.5605 5.72325 58.6362 5.6881 57.5698C5.66173 56.4492 5.67198 55.3271 5.68224 54.2065C5.6837 53.2485 6.42198 52.3696 7.35655 52.1821ZM7.87364 54.3281C7.86925 55.3374 7.87511 56.3467 7.86925 57.356C11.4596 57.3589 15.0528 57.3882 18.6417 57.3413C18.6183 56.3364 18.6388 55.3315 18.63 54.3281C15.0441 54.3252 11.4581 54.3252 7.87364 54.3281Z" fill="#547293"></path><path d="M7.63485 62.5751C11.2955 62.5384 14.9576 62.5648 18.6183 62.5619C19.7506 62.5033 20.8053 63.4642 20.8228 64.6024C20.8331 65.7245 20.8346 66.848 20.8214 67.9716C20.7935 69.0482 19.8355 69.9842 18.7589 69.993C15.2433 70.0106 11.7291 69.993 8.21347 70.0018C7.40194 70.0736 6.5289 69.7821 6.06161 69.0834C5.51376 68.3334 5.71005 67.3622 5.67489 66.4965C5.69979 65.7259 5.6119 64.9481 5.73934 64.1849C5.94003 63.3148 6.7413 62.6278 7.63485 62.5751ZM7.87216 64.7562C7.87069 65.7714 7.87069 66.7865 7.87362 67.8016C11.4581 67.8031 15.044 67.8031 18.63 67.8016C18.6329 66.7865 18.6314 65.7714 18.63 64.7562C15.044 64.7548 11.4581 64.7548 7.87216 64.7562Z" fill="#547293"></path></g><defs><clipPath id="clip0_1050_319"><rect width="75" height="75" fill="white"></rect></clipPath></defs></svg>