<svg width="70" height="70" viewBox="0 0 70 70" fill="none" xmlns="http://www.w3.org/2000/svg">
<path d="M18.6895 0H51.2969C53.4434 0.0697266 55.5912 0.419727 57.6023 1.18809C63.2926 3.2457 67.8262 8.20996 69.3438 14.0711C69.7717 15.5736 69.9316 17.1363 70 18.6936V51.301C69.9262 54.0723 69.3123 56.8408 68.075 59.3291C65.7084 64.2482 61.1064 68.034 55.8113 69.3738C54.3471 69.7826 52.8268 69.9303 51.3119 70H18.7004C16.0316 69.9275 13.3656 69.3588 10.9498 68.209C8.04316 66.8582 5.49746 64.7473 3.62031 62.1523C1.32344 59.0297 0.0820312 55.1811 0 51.3133V18.7018C0.0560547 17.891 0.0724609 17.0734 0.207813 16.2695C0.814844 11.8562 3.07344 7.70137 6.42031 4.76602C9.76445 1.76777 14.2078 0.0820312 18.6895 0ZM17.2936 4.20273C13.7266 4.59785 10.3332 6.34238 7.94199 9.0166C5.61094 11.5787 4.21914 14.9844 4.12754 18.4502C4.08242 19.7258 4.1166 21.0027 4.10566 22.2797C4.10566 30.9873 4.10566 39.6949 4.10566 48.4025C4.11797 50.4137 4.00723 52.4562 4.50215 54.425C5.28965 57.8361 7.3418 60.9355 10.1691 62.9973C12.5891 64.7992 15.5777 65.8164 18.5924 65.8807C19.9117 65.9189 21.2324 65.8889 22.5531 65.8984C32.0318 65.8957 41.5105 65.9039 50.9893 65.8943C53.7551 65.8902 56.5236 65.1287 58.867 63.6521C60.8016 62.4545 62.4531 60.8029 63.6508 58.8684C65.126 56.5291 65.8875 53.7646 65.8943 51.0029C65.9039 43.1621 65.8957 35.3213 65.8984 27.4805C65.8834 24.4699 65.9285 21.458 65.8752 18.4475C65.759 13.609 63.0561 8.94961 58.9504 6.39981C56.5906 4.89316 53.7906 4.10703 50.9947 4.10977C40.4646 4.1002 29.9359 4.10977 19.4059 4.1043C18.7018 4.1125 17.9949 4.13301 17.2936 4.20273Z" fill="#FFC576"/>
<path d="M53.2396 9.24464C54.5781 8.91378 56.0396 9.08468 57.2537 9.74503C58.6182 10.4628 59.6518 11.7726 60.0455 13.2614C60.4256 14.6778 60.2314 16.2433 59.4932 17.512C58.7645 18.7999 57.508 19.7774 56.0779 20.1589C54.6424 20.5526 53.0469 20.3517 51.7645 19.5915C50.4998 18.8628 49.5414 17.6214 49.1613 16.2132C48.7717 14.7982 48.9521 13.2259 49.6863 11.9517C50.4328 10.6132 51.7508 9.60968 53.2396 9.24464ZM53.9342 13.3339C53.3969 13.5841 53.0455 14.1665 53.066 14.7585C53.0633 15.6253 53.9041 16.3622 54.7641 16.2419C55.6541 16.1749 56.3268 15.222 56.0861 14.3593C55.9043 13.4337 54.7695 12.9046 53.9342 13.3339Z" fill="#FFC576"/>
<path d="M33.0216 15.9686C37.1095 15.5557 41.3327 16.4649 44.8423 18.6141C47.0722 19.9389 49.0136 21.745 50.5284 23.8491C53.4569 27.8768 54.6984 33.0885 53.8835 38.0036C52.9757 44.052 48.9247 49.5084 43.4204 52.1622C38.9019 54.4249 33.4605 54.7434 28.7013 53.0549C25.0071 51.778 21.7396 49.3184 19.4659 46.1424C17.0064 42.7422 15.7157 38.5081 15.8907 34.3135C16.011 30.3774 17.4151 26.496 19.8214 23.3815C22.9577 19.2376 27.8523 16.4977 33.0216 15.9686ZM33.4331 20.0538C30.3269 20.3764 27.3355 21.6999 25.014 23.7876C22.8812 25.6784 21.3021 28.1899 20.5351 30.9366C19.6614 34.0319 19.8146 37.4116 20.9849 40.4098C22.1907 43.5448 24.4876 46.2463 27.3847 47.9471C30.2667 49.6643 33.7394 50.3479 37.0603 49.8803C40.1091 49.4702 43.0185 48.0797 45.2552 45.9661C47.2526 44.1122 48.7251 41.6991 49.462 39.0754C50.3398 35.9747 50.1866 32.5868 49.0122 29.5831C47.8105 26.4508 45.5122 23.7575 42.6206 22.0581C39.8808 20.4188 36.605 19.7256 33.4331 20.0538Z" fill="#FFC576"/>
</svg>
