<svg width="40" height="28" viewBox="0 0 40 28" fill="none" xmlns="http://www.w3.org/2000/svg">
<path d="M0.406738 0.331293C11.1975 0.299254 21.9883 0.329837 32.779 0.31673C33.4355 0.30071 34.1037 0.431778 34.6749 0.762361C35.2594 1.08421 35.6544 1.63469 36.0803 2.12838C36.8997 3.11285 37.7427 4.07547 38.5548 5.06576C39.4638 6.20022 39.4447 7.94197 38.5269 9.0677C35.3108 12.8963 32.0565 16.6959 28.8463 20.5274C30.6071 22.6128 32.3679 24.6983 34.1374 26.7764C34.2491 26.9221 34.3518 27.0764 34.4532 27.2323C31.1989 27.2628 27.9461 27.2366 24.6918 27.2439C23.6991 27.2716 22.7269 26.7968 22.1058 26.0366C18.9499 22.3201 15.8043 18.5949 12.6528 14.8755C12.3621 14.542 12.0551 14.2158 11.8451 13.8211C15.6134 13.7497 19.386 13.824 23.1543 13.7847C25.0135 11.5187 26.9651 9.32692 28.8081 7.04925C25.009 7.06819 21.2085 7.03178 17.4109 7.06819C13.7836 11.3803 10.1269 15.6677 6.49674 19.9784C6.34695 20.1473 6.18982 20.3119 6.03562 20.4794C4.67576 18.9881 3.41576 17.4094 2.09996 15.8803C1.1131 14.7488 1.07051 12.9226 2.03975 11.7677C3.35408 10.1818 4.71688 8.63518 6.01947 7.03906C4.25135 4.95799 2.49352 2.86819 0.722473 0.791487C0.607927 0.6444 0.50513 0.488575 0.406738 0.331293Z" fill="#1F2235"/>
</svg>
