<svg width="18" height="19" viewBox="0 0 18 19" fill="none" xmlns="http://www.w3.org/2000/svg">
<path d="M1.1377 17.9735C1.1377 14.2965 4.11848 11.3157 7.79547 11.3157C8.1184 11.3157 8.43595 11.3387 8.74658 11.3832M11.5999 4.65796C11.5999 6.7591 9.89661 8.4624 7.79547 8.4624C5.69434 8.4624 3.99103 6.7591 3.99103 4.65796C3.99103 2.55682 5.69434 0.853516 7.79547 0.853516C9.89661 0.853516 11.5999 2.55682 11.5999 4.65796ZM9.30759 17.9735L11.2336 17.5883C11.4015 17.5547 11.4855 17.5379 11.5638 17.5072C11.6333 17.48 11.6993 17.4446 11.7605 17.4019C11.8295 17.3538 11.8901 17.2933 12.0112 17.1722L15.9654 13.218C16.4907 12.6927 16.4907 11.841 15.9654 11.3157C15.4401 10.7905 14.5884 10.7905 14.0631 11.3157L10.109 15.2699C9.98785 15.391 9.9273 15.4516 9.87919 15.5206C9.83648 15.5818 9.80114 15.6478 9.77388 15.7173C9.74317 15.7956 9.72637 15.8796 9.69278 16.0475L9.30759 17.9735Z" stroke="#6C76AB" stroke-width="1.5" stroke-linecap="round" stroke-linejoin="round"/>
</svg>
