<svg width="42" height="42" viewBox="0 0 42 42" fill="none" xmlns="../../../../../../external.html?link=http://www.w3.org/2000/svg">
<path d="M14 10.0625C13.2825 10.0625 12.6875 9.4675 12.6875 8.75V3.5C12.6875 2.7825 13.2825 2.1875 14 2.1875C14.7175 2.1875 15.3125 2.7825 15.3125 3.5V8.75C15.3125 9.4675 14.7175 10.0625 14 10.0625Z" fill="#7E97B4"/>
<path d="M28 10.0625C27.2825 10.0625 26.6875 9.4675 26.6875 8.75V3.5C26.6875 2.7825 27.2825 2.1875 28 2.1875C28.7175 2.1875 29.3125 2.7825 29.3125 3.5V8.75C29.3125 9.4675 28.7175 10.0625 28 10.0625Z" fill="#7E97B4"/>
<path d="M14.875 25.3751C14.6475 25.3751 14.42 25.3226 14.21 25.2351C13.9825 25.1476 13.8075 25.025 13.6325 24.8675C13.3175 24.535 13.125 24.0976 13.125 23.6251C13.125 23.3976 13.1775 23.17 13.265 22.96C13.3525 22.75 13.475 22.5576 13.6325 22.3826C13.8075 22.2251 13.9825 22.1025 14.21 22.015C14.84 21.7525 15.6275 21.8926 16.1175 22.3826C16.4325 22.7151 16.625 23.1701 16.625 23.6251C16.625 23.7301 16.6075 23.8526 16.59 23.9751C16.5725 24.0801 16.5375 24.1851 16.485 24.2901C16.45 24.3951 16.3975 24.5001 16.3275 24.6051C16.275 24.6926 16.1875 24.78 16.1175 24.8675C15.785 25.1825 15.33 25.3751 14.875 25.3751Z" fill="#7E97B4"/>
<path d="M21 25.375C20.7725 25.375 20.545 25.3225 20.335 25.235C20.1075 25.1475 19.9325 25.025 19.7575 24.8675C19.4425 24.535 19.25 24.0975 19.25 23.625C19.25 23.3975 19.3025 23.17 19.39 22.96C19.4775 22.75 19.6 22.5575 19.7575 22.3825C19.9325 22.225 20.1075 22.1025 20.335 22.015C20.965 21.735 21.7525 21.8925 22.2425 22.3825C22.5575 22.715 22.75 23.17 22.75 23.625C22.75 23.73 22.7325 23.8525 22.715 23.975C22.6975 24.08 22.6625 24.185 22.61 24.29C22.575 24.395 22.5225 24.5 22.4525 24.605C22.4 24.6925 22.3125 24.78 22.2425 24.8675C21.91 25.1825 21.455 25.375 21 25.375Z" fill="#7E97B4"/>
<path d="M27.125 25.375C26.8975 25.375 26.67 25.3225 26.46 25.235C26.2325 25.1475 26.0575 25.025 25.8825 24.8675C25.8125 24.78 25.7425 24.6925 25.6725 24.605C25.6025 24.5 25.55 24.395 25.515 24.29C25.4625 24.185 25.4275 24.08 25.41 23.975C25.3925 23.8525 25.375 23.73 25.375 23.625C25.375 23.17 25.5675 22.715 25.8825 22.3825C26.0575 22.225 26.2325 22.1025 26.46 22.015C27.1075 21.735 27.8775 21.8925 28.3675 22.3825C28.6825 22.715 28.875 23.17 28.875 23.625C28.875 23.73 28.8575 23.8525 28.84 23.975C28.8225 24.08 28.7875 24.185 28.735 24.29C28.7 24.395 28.6475 24.5 28.5775 24.605C28.525 24.6925 28.4375 24.78 28.3675 24.8675C28.035 25.1825 27.58 25.375 27.125 25.375Z" fill="#7E97B4"/>
<path d="M14.875 31.5001C14.6475 31.5001 14.42 31.4476 14.21 31.3601C14 31.2726 13.8075 31.1501 13.6325 30.9926C13.3175 30.6601 13.125 30.2051 13.125 29.7501C13.125 29.5226 13.1775 29.2951 13.265 29.0851C13.3525 28.8576 13.475 28.6651 13.6325 28.5076C14.28 27.8601 15.47 27.8601 16.1175 28.5076C16.4325 28.8401 16.625 29.2951 16.625 29.7501C16.625 30.2051 16.4325 30.6601 16.1175 30.9926C15.785 31.3076 15.33 31.5001 14.875 31.5001Z" fill="#7E97B4"/>
<path d="M21 31.5001C20.545 31.5001 20.09 31.3076 19.7575 30.9926C19.4425 30.6601 19.25 30.2051 19.25 29.7501C19.25 29.5226 19.3025 29.2951 19.39 29.0851C19.4775 28.8576 19.6 28.6651 19.7575 28.5076C20.405 27.8601 21.595 27.8601 22.2425 28.5076C22.4 28.6651 22.5225 28.8576 22.61 29.0851C22.6975 29.2951 22.75 29.5226 22.75 29.7501C22.75 30.2051 22.5575 30.6601 22.2425 30.9926C21.91 31.3076 21.455 31.5001 21 31.5001Z" fill="#7E97B4"/>
<path d="M27.125 31.5001C26.67 31.5001 26.215 31.3076 25.8825 30.9926C25.725 30.8351 25.6025 30.6426 25.515 30.4151C25.4275 30.2051 25.375 29.9776 25.375 29.7501C25.375 29.5226 25.4275 29.2951 25.515 29.0851C25.6025 28.8576 25.725 28.6651 25.8825 28.5076C26.285 28.1051 26.8975 27.9126 27.4575 28.0351C27.58 28.0526 27.685 28.0876 27.79 28.1401C27.895 28.1751 28 28.2276 28.105 28.2976C28.1925 28.3501 28.28 28.4376 28.3675 28.5076C28.6825 28.8401 28.875 29.2951 28.875 29.7501C28.875 30.2051 28.6825 30.6601 28.3675 30.9926C28.035 31.3076 27.58 31.5001 27.125 31.5001Z" fill="#7E97B4"/>
<path d="M35.875 17.2197H6.125C5.4075 17.2197 4.8125 16.6247 4.8125 15.9072C4.8125 15.1897 5.4075 14.5947 6.125 14.5947H35.875C36.5925 14.5947 37.1875 15.1897 37.1875 15.9072C37.1875 16.6247 36.5925 17.2197 35.875 17.2197Z" fill="#7E97B4"/>
<path d="M28 39.8125H14C7.6125 39.8125 3.9375 36.1375 3.9375 29.75V14.875C3.9375 8.4875 7.6125 4.8125 14 4.8125H28C34.3875 4.8125 38.0625 8.4875 38.0625 14.875V29.75C38.0625 36.1375 34.3875 39.8125 28 39.8125ZM14 7.4375C8.995 7.4375 6.5625 9.87 6.5625 14.875V29.75C6.5625 34.755 8.995 37.1875 14 37.1875H28C33.005 37.1875 35.4375 34.755 35.4375 29.75V14.875C35.4375 9.87 33.005 7.4375 28 7.4375H14Z" fill="#7E97B4"/>
</svg>
