<svg width="20" height="17" viewBox="0 0 20 17" fill="none" xmlns="http://www.w3.org/2000/svg">
<path d="M6.38251 7.46246H6.39202M10.187 7.46246H10.1965M13.9914 7.46246H14.0009M18.747 16.0225L15.5851 14.4416C15.3455 14.3217 15.2256 14.2618 15.1 14.2196C14.9885 14.182 14.8737 14.1549 14.7572 14.1386C14.626 14.1202 14.492 14.1202 14.224 14.1202H6.19229C4.59427 14.1202 3.79526 14.1202 3.1849 13.8092C2.64801 13.5357 2.21151 13.0992 1.93795 12.5623C1.62695 11.9519 1.62695 11.1529 1.62695 9.55491V5.37002C1.62695 3.772 1.62695 2.973 1.93795 2.36263C2.21151 1.82575 2.64801 1.38924 3.1849 1.11568C3.79526 0.804688 4.59427 0.804688 6.19229 0.804688H14.1816C15.7796 0.804688 16.5786 0.804688 17.189 1.11568C17.7259 1.38924 18.1624 1.82575 18.436 2.36263C18.747 2.973 18.747 3.772 18.747 5.37002V16.0225Z" stroke="#6C76AB" stroke-width="1.5" stroke-linecap="round" stroke-linejoin="round"/>
</svg>
