<svg width="20" height="19" viewBox="0 0 20 19" fill="none" xmlns="http://www.w3.org/2000/svg">
<path d="M16.499 6.24796V4.29805C16.499 3.08466 16.499 2.47796 16.2628 2.01451C16.0551 1.60684 15.7237 1.2754 15.316 1.06768C14.8526 0.831543 14.2459 0.831543 13.0325 0.831543H4.79952C3.58612 0.831543 2.97943 0.831543 2.51597 1.06768C2.10831 1.2754 1.77687 1.60684 1.56915 2.01451C1.33301 2.47796 1.33301 3.08466 1.33301 4.29805V15.9975L5.68632 13.8209M5.68632 13.8209C5.66614 13.4822 5.66614 13.0655 5.66614 12.531V9.71447C5.66614 8.50108 5.66614 7.89438 5.90229 7.43093C6.11 7.02326 6.44144 6.69182 6.84911 6.4841C7.31256 6.24796 7.91926 6.24796 9.13265 6.24796H15.199C16.4124 6.24796 17.0191 6.24796 17.4826 6.4841C17.8902 6.69182 18.2217 7.02326 18.4294 7.43093C18.6656 7.89438 18.6656 8.50108 18.6656 9.71447V18.1641L16.289 16.5797C15.9644 16.3633 15.8021 16.2551 15.6265 16.1785C15.4707 16.1104 15.3073 16.061 15.1399 16.0311C14.9513 15.9975 14.7562 15.9975 14.3661 15.9975H9.13265C7.91926 15.9975 7.31256 15.9975 6.84911 15.7614C6.44144 15.5537 6.11 15.2222 5.90229 14.8146C5.77015 14.5552 5.71196 14.2511 5.68632 13.8209Z" stroke="#FFC576" stroke-width="1.5" stroke-linecap="round" stroke-linejoin="round"/>
</svg>
