<svg width="18" height="18" viewBox="0 0 18 18" fill="none" xmlns="../../../../../../external.html?link=http://www.w3.org/2000/svg">
<path d="M12 9.51744V13.5599C12 15.3149 10.83 16.4774 9.0825 16.4774H4.4175C2.67 16.4774 1.5 15.3149 1.5 13.5599V7.73244C1.5 5.97744 2.67 4.81494 4.4175 4.81494H7.29C8.0625 4.81494 8.805 5.12244 9.3525 5.66994L11.145 7.45494C11.6925 8.00244 12 8.74494 12 9.51744Z" stroke="#FFC576" stroke-linecap="round" stroke-linejoin="round"/>
<path d="M16.5 6.18803V10.2305C16.5 11.978 15.33 13.148 13.5825 13.148H12V9.51803C12 8.74553 11.6925 8.00303 11.145 7.45553L9.3525 5.67053C8.805 5.12303 8.0625 4.81553 7.29 4.81553H6V4.39553C6 2.64803 7.17 1.47803 8.9175 1.47803H11.79C12.5625 1.47803 13.305 1.78553 13.8525 2.33303L15.645 4.12553C16.1925 4.67303 16.5 5.41553 16.5 6.18803Z" stroke="#FFC576" stroke-linecap="round" stroke-linejoin="round"/>
</svg>
