<svg width="19" height="19" viewBox="0 0 19 19" fill="none" xmlns="http://www.w3.org/2000/svg">
<path d="M1.02734 7.51129H18.1473M4.83179 0.853516V2.75574M14.3429 0.853516V2.75574M4.0709 17.9735H15.1038C16.1691 17.9735 16.7018 17.9735 17.1087 17.7662C17.4666 17.5838 17.7576 17.2928 17.94 16.9349C18.1473 16.528 18.1473 15.9953 18.1473 14.93V5.79929C18.1473 4.73395 18.1473 4.20128 17.94 3.79437C17.7576 3.43644 17.4666 3.14544 17.1087 2.96307C16.7018 2.75574 16.1691 2.75574 15.1038 2.75574H4.0709C3.00556 2.75574 2.47288 2.75574 2.06598 2.96307C1.70805 3.14544 1.41705 3.43644 1.23467 3.79437C1.02734 4.20128 1.02734 4.73395 1.02734 5.79929V14.93C1.02734 15.9953 1.02734 16.528 1.23467 16.9349C1.41705 17.2928 1.70805 17.5838 2.06598 17.7662C2.47288 17.9735 3.00555 17.9735 4.0709 17.9735Z" stroke="#6C76AB" stroke-width="1.5" stroke-linecap="round" stroke-linejoin="round"/>
</svg>
