<svg width="42" height="41" viewBox="0 0 42 41" fill="none" xmlns="http://www.w3.org/2000/svg">
<path d="M3.98806 0.441869C10.306 0.0389382 16.6455 0.413593 22.9706 0.293421C27.2783 0.236869 31.5824 0.318162 35.8865 0.289887C37.4265 0.233335 39.0599 0.629197 40.0937 1.82739C41.0916 2.83825 41.3824 4.28032 41.3286 5.64463C41.2963 15.6649 41.3465 25.6887 41.3034 35.7089C41.3429 37.5963 40.0291 39.3777 38.2486 40.021C36.8019 40.4699 35.2655 40.2684 33.7722 40.2896C24.9091 40.3285 16.046 40.2189 7.17934 40.3002C5.85832 40.3108 4.48345 40.4027 3.22345 39.9432C1.53986 39.2364 0.261908 37.5151 0.383959 35.6736C0.37319 25.307 0.315754 14.9439 0.398318 4.58075C0.434215 2.60497 2.05319 0.834197 3.98806 0.441869ZM10.4783 9.59618C9.34037 9.70221 9.31524 11.0206 9.07114 11.8547C8.43216 14.9297 7.42345 17.9446 7.00345 21.0514C8.89524 20.1996 10.8158 19.3867 12.6393 18.4006C13.7306 16.3506 13.9317 13.933 14.8973 11.8194C15.4645 10.6954 16.6922 10.0486 17.9306 9.9567C20.7809 9.62092 23.7245 9.41946 26.5532 10.0203C27.7629 10.3384 29.2419 10.858 29.5937 12.194C29.9275 12.9893 29.1055 13.5725 28.5886 14.0461C26.6286 15.5765 24.3993 16.7288 22.2096 17.9093C17.0799 20.5672 11.8711 23.0767 6.68755 25.6392C6.19575 25.9149 5.51011 26.1446 5.47422 26.8056C4.91422 29.1171 4.29678 31.4216 3.85165 33.7614C5.87268 33.4363 7.7537 32.5526 9.73883 32.072C10.4855 29.9301 10.9378 27.7033 11.6486 25.5544C11.7634 24.9959 12.3558 24.8298 12.8188 24.646C20.8742 21.8538 28.8614 18.7364 36.2993 14.5657C36.8809 14.2476 37.4229 13.8658 37.9578 13.4735C36.0516 10.0698 32.1101 8.37678 28.3337 7.99859C22.3388 7.39773 16.3296 8.37678 10.4783 9.59618Z" fill="#7E97B4"/>
</svg>
