<svg width="14" height="24" viewBox="0 0 14 24" fill="none" xmlns="../../../../../../external.html?link=http://www.w3.org/2000/svg">
<path d="M8.87321 0H13.0313C13.5353 0.129372 13.9127 0.609362 13.908 1.12123C13.9142 2.23167 13.908 3.34212 13.9108 4.45256C13.9132 4.67803 13.886 4.91052 13.7756 5.11208C13.5841 5.48426 13.1775 5.73504 12.7528 5.74301C12.0262 5.75519 11.2986 5.73644 10.572 5.75238C10.347 5.77113 10.0928 5.76551 9.90462 5.90519C9.77802 6.09972 9.79713 6.34534 9.78376 6.56705C9.77994 7.07564 9.78328 7.58422 9.78232 8.0928C10.6675 8.09327 11.5528 8.09327 12.438 8.0928C12.6367 8.09562 12.8417 8.1064 13.027 8.18421C13.3791 8.32342 13.6519 8.63842 13.7336 9.00169C13.7713 9.17091 13.7728 9.34481 13.7723 9.51684C13.768 10.6723 13.7742 11.8282 13.7675 12.9841C13.7661 13.4271 13.489 13.8555 13.0758 14.0369C12.7729 14.1813 12.4284 14.1424 12.1031 14.1471C11.3287 14.1513 10.5543 14.1396 9.77994 14.1531C9.78567 17.0134 9.78041 19.8732 9.7828 22.7334C9.78758 23.0077 9.72404 23.2908 9.55349 23.513C9.33087 23.8219 8.94917 24.0037 8.56556 23.9981C7.29099 24.0009 6.01642 23.999 4.74232 23.9995C4.41269 24.0084 4.07638 23.8964 3.84086 23.6658C3.59722 23.438 3.47301 23.1056 3.4797 22.778C3.4797 19.9505 3.47731 17.1231 3.48113 14.2961C3.47062 14.2455 3.50979 14.1297 3.4152 14.148C2.67951 14.1447 1.94286 14.1508 1.20668 14.1456C0.873707 14.1456 0.540254 14.0111 0.316201 13.7674C0.105046 13.5447 -0.00291924 13.2396 0.00138029 12.9368C-0.000530609 11.8268 0.00185781 10.7168 0.000424637 9.60683C0.000902362 9.43387 -0.00530804 9.26044 0.0176228 9.08888C0.071128 8.7092 0.331966 8.36608 0.686438 8.20624C0.878006 8.11343 1.09441 8.09233 1.30461 8.09233C2.02932 8.09327 2.75451 8.09327 3.47922 8.0928C3.48161 7.44266 3.47444 6.79252 3.48304 6.14284C3.49307 5.36989 3.60534 4.59412 3.85853 3.86008C4.16332 2.96197 4.68595 2.12714 5.40254 1.48872C6.3427 0.620612 7.60055 0.138278 8.87321 0ZM8.03719 1.60028C7.4515 1.77371 6.89782 2.0634 6.43873 2.46229C5.82963 2.98541 5.40015 3.69274 5.17275 4.4521C4.96303 5.10365 4.91144 5.79176 4.91526 6.4719C4.91383 7.2322 4.91908 7.99296 4.91287 8.75326C4.90714 9.15731 4.53356 9.50887 4.12224 9.5009C3.22746 9.50512 2.3322 9.50043 1.43742 9.50277C1.44077 10.5818 1.4293 11.6609 1.44315 12.7399C2.33602 12.7366 3.22889 12.7371 4.12176 12.7394C4.55792 12.7268 4.9401 13.1224 4.91478 13.5475C4.91669 16.5615 4.91478 19.576 4.91574 22.59C6.05846 22.5905 7.20165 22.5905 8.34437 22.59C8.34533 19.5741 8.34342 16.5583 8.34533 13.5428C8.32431 13.1177 8.70505 12.7263 9.14074 12.7394C10.2046 12.7361 11.268 12.7385 12.3315 12.7385C12.3334 11.6599 12.3334 10.5809 12.3334 9.50231C11.2685 9.5009 10.2037 9.50465 9.13883 9.5009C8.72607 9.5084 8.35345 9.15731 8.34772 8.75185C8.34342 7.98499 8.33959 7.21813 8.3501 6.45174C8.36061 5.88175 8.48673 5.2602 8.93914 4.86318C9.45078 4.39444 10.1927 4.33725 10.8586 4.33679C11.3966 4.33772 11.935 4.33632 12.4729 4.33772C12.4753 3.34728 12.4733 2.3573 12.4738 1.36685C11.7443 1.36497 11.0149 1.3645 10.2858 1.3631C9.53104 1.35138 8.76238 1.37388 8.03719 1.60028Z" fill="#FFC576"/>
</svg>
