<svg width="21" height="22" viewBox="0 0 21 22" fill="none" xmlns="http://www.w3.org/2000/svg">
<path d="M17.25 14C16.0537 14 15.0005 14.5709 14.3137 15.4433L7.31719 11.9656C7.44375 11.6141 7.5 11.3375 7.5 11C7.5 10.6625 7.44375 10.3438 7.31719 10.0344L14.2734 6.55672C15 7.42813 16.0547 8 17.25 8C19.3219 8 21 6.32188 21 4.25C21 2.17812 19.3219 0.5 17.25 0.5C15.1781 0.5 13.5 2.17906 13.5 4.25C13.5 4.58609 13.5584 4.90578 13.6414 5.21563L6.68438 8.69375C5.95781 7.82188 4.94531 7.25 3.75 7.25C1.67906 7.25 0 8.92813 0 11C0 13.0719 1.67906 14.75 3.75 14.75C4.94625 14.75 5.99953 14.1791 6.68625 13.3067L13.6425 16.7844C13.5563 17.0938 13.5 17.4125 13.5 17.75C13.5 19.8209 15.1791 21.5 17.25 21.5C19.3209 21.5 21 19.8209 21 17.75C21 15.6791 19.3219 14 17.25 14ZM17.25 2C18.4922 2 19.5 3.00922 19.5 4.25C19.5 5.49078 18.4922 6.5 17.25 6.5C16.0078 6.5 15 5.49219 15 4.25C15 3.00781 16.0078 2 17.25 2ZM3.75 13.25C2.50922 13.25 1.5 12.2422 1.5 11C1.5 9.75781 2.50922 8.75 3.75 8.75C4.99078 8.75 6 9.75781 6 11C6 12.2422 4.99219 13.25 3.75 13.25ZM17.25 20C16.0092 20 15 18.9908 15 17.75C15 16.5092 16.0092 15.5 17.25 15.5C18.4908 15.5 19.5 16.5092 19.5 17.75C19.5 18.9908 18.4922 20 17.25 20Z" fill="#FFC576"/>
</svg>
