<svg width="25" height="24" viewBox="0 0 25 24" fill="none" xmlns="http://www.w3.org/2000/svg">
<path d="M7.10801 0H18.2877C19.0236 0.0239062 19.76 0.143906 20.4496 0.407344C22.4005 1.11281 23.9549 2.81484 24.4752 4.82438C24.6219 5.33953 24.6768 5.87531 24.7002 6.40922V17.5889C24.6749 18.5391 24.4644 19.4883 24.0402 20.3414C23.2288 22.028 21.651 23.3259 19.8355 23.7853C19.3335 23.9255 18.8122 23.9761 18.2929 24H7.11176C6.19676 23.9752 5.2827 23.7802 4.45441 23.3859C3.45785 22.9228 2.58504 22.1991 1.94145 21.3094C1.15395 20.2388 0.72832 18.9192 0.700195 17.5931V6.41203C0.719414 6.13406 0.725039 5.85375 0.771445 5.57812C0.97957 4.065 1.75395 2.64047 2.90145 1.63406C4.04801 0.606094 5.57145 0.028125 7.10801 0ZM6.62941 1.44094C5.40645 1.57641 4.24301 2.17453 3.42316 3.09141C2.62395 3.96984 2.14676 5.1375 2.11535 6.32578C2.09988 6.76312 2.1116 7.20094 2.10785 7.63875C2.10785 10.6242 2.10785 13.6097 2.10785 16.5952C2.11207 17.2847 2.0741 17.985 2.24379 18.66C2.51379 19.8295 3.21738 20.8922 4.18676 21.5991C5.01645 22.2169 6.04113 22.5656 7.07473 22.5877C7.52707 22.6008 7.97988 22.5905 8.4327 22.5938C11.6825 22.5928 14.9324 22.5956 18.1822 22.5923C19.1305 22.5909 20.0797 22.3298 20.8832 21.8236C21.5464 21.413 22.1127 20.8467 22.5233 20.1834C23.0291 19.3814 23.2902 18.4336 23.2925 17.4867C23.2958 14.7984 23.293 12.1102 23.2939 9.42188C23.2888 8.38969 23.3043 7.35703 23.286 6.32484C23.2461 4.66594 22.3194 3.06844 20.9118 2.19422C20.1027 1.67766 19.1427 1.40812 18.1841 1.40906C14.5738 1.40578 10.9639 1.40906 7.35363 1.40719C7.11223 1.41 6.86988 1.41703 6.62941 1.44094Z" fill="#FFC576"/>
<path d="M18.9543 3.16953C19.4132 3.0561 19.9143 3.11469 20.3305 3.3411C20.7984 3.58719 21.1527 4.03625 21.2877 4.54672C21.418 5.03235 21.3515 5.56906 21.0984 6.00406C20.8485 6.44563 20.4177 6.78078 19.9274 6.91156C19.4352 7.04656 18.8882 6.97766 18.4485 6.71703C18.0149 6.46719 17.6863 6.04156 17.556 5.55875C17.4224 5.0736 17.4843 4.53453 17.736 4.09766C17.9919 3.63875 18.4438 3.29469 18.9543 3.16953ZM19.1924 4.57156C19.0082 4.65735 18.8877 4.85703 18.8948 5.06C18.8938 5.35719 19.1821 5.60985 19.4769 5.5686C19.7821 5.54563 20.0127 5.21891 19.9302 4.92313C19.8679 4.60578 19.4788 4.42438 19.1924 4.57156Z" fill="#FFC576"/>
<path d="M12.0214 5.47516C13.423 5.3336 14.8709 5.64532 16.0742 6.38219C16.8388 6.83641 17.5044 7.45563 18.0238 8.17704C19.0278 9.55797 19.4534 11.3448 19.1741 13.03C18.8628 15.1038 17.4739 16.9745 15.5867 17.8844C14.0375 18.6602 12.1719 18.7694 10.5402 18.1905C9.2736 17.7527 8.15329 16.9094 7.37375 15.8205C6.53047 14.6547 6.08797 13.203 6.14797 11.7648C6.18922 10.4153 6.67063 9.08454 7.49563 8.01672C8.57094 6.59594 10.2491 5.65657 12.0214 5.47516ZM12.1625 6.87579C11.0975 6.98641 10.0719 7.44016 9.27594 8.15594C8.54469 8.80422 8.00329 9.66532 7.74032 10.607C7.44079 11.6683 7.49329 12.827 7.89454 13.855C8.30797 14.9298 9.09547 15.8561 10.0888 16.4392C11.0769 17.028 12.2675 17.2623 13.4061 17.102C14.4514 16.9614 15.4489 16.4847 16.2158 15.76C16.9006 15.1244 17.4055 14.297 17.6581 13.3975C17.9591 12.3344 17.9066 11.1728 17.5039 10.143C17.0919 9.06907 16.3039 8.14563 15.3125 7.56297C14.3731 7.00094 13.25 6.76329 12.1625 6.87579Z" fill="#FFC576"/>
</svg>
