<svg width="23" height="24" viewBox="0 0 23 24" fill="none" xmlns="http://www.w3.org/2000/svg">
<path d="M3.74846 0H3.94003C4.88306 0.0351562 5.79217 0.540937 6.29474 1.32609C6.69794 1.93781 6.84555 2.70421 6.70032 3.41812C6.56322 4.12781 6.1347 4.77609 5.53706 5.19609C4.97908 5.59405 4.273 5.78483 3.58556 5.72483C2.78967 5.66343 2.03008 5.25937 1.53898 4.64156C1.08084 4.07765 0.855835 3.33937 0.922716 2.62125C0.984821 1.86703 1.37178 1.14703 1.96559 0.665624C2.46242 0.255937 3.10114 0.0234375 3.74846 0ZM3.55833 1.43812C3.39017 1.47 3.22678 1.52859 3.07965 1.61484C2.4715 1.95234 2.18534 2.7389 2.44284 3.37734C2.6903 4.07624 3.53205 4.49156 4.25198 4.26515C5.00536 4.0664 5.49072 3.22171 5.26476 2.48625C5.0837 1.77281 4.29307 1.28437 3.55833 1.43812Z" fill="white"/>
<path d="M3.74846 0H3.94003C4.88306 0.0351562 5.79217 0.540937 6.29474 1.32609C6.69794 1.93781 6.84555 2.70421 6.70032 3.41812C6.56322 4.12781 6.1347 4.77609 5.53706 5.19609C4.97908 5.59405 4.273 5.78483 3.58556 5.72483C2.78967 5.66343 2.03008 5.25937 1.53898 4.64156C1.08084 4.07765 0.855835 3.33937 0.922716 2.62125C0.984821 1.86703 1.37178 1.14703 1.96559 0.665624C2.46242 0.255937 3.10114 0.0234375 3.74846 0ZM3.55833 1.43812C3.39017 1.47 3.22678 1.52859 3.07965 1.61484C2.4715 1.95234 2.18534 2.7389 2.44284 3.37734C2.6903 4.07624 3.53205 4.49156 4.25198 4.26515C5.00536 4.0664 5.49072 3.22171 5.26476 2.48625C5.0837 1.77281 4.29307 1.28437 3.55833 1.43812Z" fill="#FFC576"/>
<path d="M1.00823 7.59457C1.13912 7.30488 1.44917 7.10566 1.77354 7.10894C3.1107 7.10425 4.44833 7.10988 5.78596 7.1066C5.97657 7.10425 6.17626 7.12816 6.33869 7.2355C6.5914 7.38738 6.74045 7.67519 6.73233 7.96488C6.73329 13.0283 6.73424 18.0922 6.73185 23.1556C6.74953 23.5841 6.3855 23.9717 5.95125 23.9999H1.73867C1.44248 23.9848 1.16205 23.8114 1.02781 23.5517C0.905517 23.3291 0.936091 23.0689 0.932747 22.8261C0.933225 17.9675 0.933702 13.1085 0.932747 8.24941C0.935613 8.0305 0.911249 7.79941 1.00823 7.59457ZM2.36831 8.51519C2.36783 13.2074 2.36783 17.9 2.36831 22.5922C3.34478 22.5917 4.32173 22.5927 5.29868 22.5917C5.2982 17.8995 5.2982 13.2078 5.29868 8.51566C4.32173 8.51425 3.34478 8.51566 2.36831 8.51519Z" fill="white"/>
<path d="M1.00823 7.59457C1.13912 7.30488 1.44917 7.10566 1.77354 7.10894C3.1107 7.10425 4.44833 7.10988 5.78596 7.1066C5.97657 7.10425 6.17626 7.12816 6.33869 7.2355C6.5914 7.38738 6.74045 7.67519 6.73233 7.96488C6.73329 13.0283 6.73424 18.0922 6.73185 23.1556C6.74953 23.5841 6.3855 23.9717 5.95125 23.9999H1.73867C1.44248 23.9848 1.16205 23.8114 1.02781 23.5517C0.905517 23.3291 0.936091 23.0689 0.932747 22.8261C0.933225 17.9675 0.933702 13.1085 0.932747 8.24941C0.935613 8.0305 0.911249 7.79941 1.00823 7.59457ZM2.36831 8.51519C2.36783 13.2074 2.36783 17.9 2.36831 22.5922C3.34478 22.5917 4.32173 22.5927 5.29868 22.5917C5.2982 17.8995 5.2982 13.2078 5.29868 8.51566C4.32173 8.51425 3.34478 8.51566 2.36831 8.51519Z" fill="#FFC576"/>
<path d="M8.75837 7.27721C8.91363 7.15111 9.11762 7.10424 9.31587 7.10705C10.685 7.10799 12.0547 7.10565 13.4243 7.10846C13.7238 7.10049 14.02 7.26549 14.1562 7.52846C14.2775 7.7408 14.2465 7.99205 14.2498 8.22549C14.6898 8.03049 15.1456 7.86221 15.6233 7.78065C16.7345 7.56221 17.913 7.71127 18.9363 8.18799C20.0441 8.70455 20.9227 9.60549 21.5834 10.6044C22.0735 11.3872 22.4285 12.2577 22.579 13.1666C22.7156 13.8622 22.6989 14.5747 22.6998 15.2797C22.6984 17.9516 22.7017 20.6239 22.6979 23.2953C22.7118 23.6516 22.4117 23.9698 22.0525 23.9998H17.8404C17.4749 23.9792 17.1663 23.6562 17.1802 23.2953C17.1773 20.3267 17.1788 17.3581 17.1792 14.3895C17.185 14.083 17.1702 13.7633 17.0197 13.4872C16.7612 12.9688 16.1612 12.642 15.5755 12.7049C15.0247 12.7494 14.5341 13.1403 14.3482 13.647C14.2202 13.9742 14.2541 14.3305 14.2498 14.6736C14.2484 17.5475 14.2527 20.4219 14.2479 23.2962C14.2575 23.6661 13.9288 23.9923 13.5538 23.9998H9.20026C8.78751 23.9741 8.43686 23.6094 8.4531 23.2006C8.44928 18.1231 8.45262 13.0452 8.45119 7.96721C8.43877 7.70658 8.54291 7.43705 8.75837 7.27721ZM9.88628 8.51518C9.88628 13.2074 9.88628 17.8995 9.88628 22.5917C10.8627 22.5922 11.8387 22.5922 12.8152 22.5917C12.8152 19.7961 12.8147 17 12.8152 14.2039C12.8133 13.8706 12.8592 13.5355 12.9705 13.22C13.2676 12.3374 14.0368 11.6263 14.9521 11.3877C15.6195 11.2081 16.3528 11.2714 16.9748 11.5705C17.7406 11.931 18.3286 12.6369 18.5283 13.4478C18.5957 13.7089 18.6162 13.9799 18.6153 14.2484C18.6153 17.0295 18.6153 19.8106 18.6153 22.5917C19.4976 22.5922 20.3805 22.5922 21.2633 22.5917C21.2633 20.1083 21.2633 17.6248 21.2633 15.1414C21.2619 14.5456 21.28 13.9438 21.1592 13.3564C20.9318 12.1156 20.2668 10.9564 19.3061 10.1192C18.6167 9.47471 17.6727 9.10674 16.7225 9.09033C15.7757 9.06924 14.824 9.39361 14.1003 9.99314C13.9837 10.0864 13.8629 10.1853 13.7124 10.2191C13.4415 10.2908 13.1319 10.1872 12.9647 9.96549C12.8386 9.81455 12.8195 9.61064 12.8147 9.42314C12.8147 9.12033 12.8157 8.81799 12.8147 8.51518C11.8387 8.51518 10.8627 8.51518 9.88628 8.51518Z" fill="white"/>
<path d="M8.75837 7.27721C8.91363 7.15111 9.11762 7.10424 9.31587 7.10705C10.685 7.10799 12.0547 7.10565 13.4243 7.10846C13.7238 7.10049 14.02 7.26549 14.1562 7.52846C14.2775 7.7408 14.2465 7.99205 14.2498 8.22549C14.6898 8.03049 15.1456 7.86221 15.6233 7.78065C16.7345 7.56221 17.913 7.71127 18.9363 8.18799C20.0441 8.70455 20.9227 9.60549 21.5834 10.6044C22.0735 11.3872 22.4285 12.2577 22.579 13.1666C22.7156 13.8622 22.6989 14.5747 22.6998 15.2797C22.6984 17.9516 22.7017 20.6239 22.6979 23.2953C22.7118 23.6516 22.4117 23.9698 22.0525 23.9998H17.8404C17.4749 23.9792 17.1663 23.6562 17.1802 23.2953C17.1773 20.3267 17.1788 17.3581 17.1792 14.3895C17.185 14.083 17.1702 13.7633 17.0197 13.4872C16.7612 12.9688 16.1612 12.642 15.5755 12.7049C15.0247 12.7494 14.5341 13.1403 14.3482 13.647C14.2202 13.9742 14.2541 14.3305 14.2498 14.6736C14.2484 17.5475 14.2527 20.4219 14.2479 23.2962C14.2575 23.6661 13.9288 23.9923 13.5538 23.9998H9.20026C8.78751 23.9741 8.43686 23.6094 8.4531 23.2006C8.44928 18.1231 8.45262 13.0452 8.45119 7.96721C8.43877 7.70658 8.54291 7.43705 8.75837 7.27721ZM9.88628 8.51518C9.88628 13.2074 9.88628 17.8995 9.88628 22.5917C10.8627 22.5922 11.8387 22.5922 12.8152 22.5917C12.8152 19.7961 12.8147 17 12.8152 14.2039C12.8133 13.8706 12.8592 13.5355 12.9705 13.22C13.2676 12.3374 14.0368 11.6263 14.9521 11.3877C15.6195 11.2081 16.3528 11.2714 16.9748 11.5705C17.7406 11.931 18.3286 12.6369 18.5283 13.4478C18.5957 13.7089 18.6162 13.9799 18.6153 14.2484C18.6153 17.0295 18.6153 19.8106 18.6153 22.5917C19.4976 22.5922 20.3805 22.5922 21.2633 22.5917C21.2633 20.1083 21.2633 17.6248 21.2633 15.1414C21.2619 14.5456 21.28 13.9438 21.1592 13.3564C20.9318 12.1156 20.2668 10.9564 19.3061 10.1192C18.6167 9.47471 17.6727 9.10674 16.7225 9.09033C15.7757 9.06924 14.824 9.39361 14.1003 9.99314C13.9837 10.0864 13.8629 10.1853 13.7124 10.2191C13.4415 10.2908 13.1319 10.1872 12.9647 9.96549C12.8386 9.81455 12.8195 9.61064 12.8147 9.42314C12.8147 9.12033 12.8157 8.81799 12.8147 8.51518C11.8387 8.51518 10.8627 8.51518 9.88628 8.51518Z" fill="#FFC576"/>
</svg>
