<svg width="40" height="40" viewBox="0 0 40 40" fill="none" xmlns="http://www.w3.org/2000/svg">
<path d="M33.9671 35.2165C33.6337 35.2165 33.3171 35.0832 33.0837 34.8498L22.4504 24.2165C21.9671 23.7332 21.9671 22.9332 22.4504 22.4498L35.3337 9.56652C35.6504 9.24986 36.1337 9.13318 36.5671 9.24985C37.0004 9.38318 37.3337 9.73319 37.4337 10.1665C37.7504 11.5832 37.9171 13.1665 37.9171 14.9998V24.9998C37.9171 29.6165 36.9504 32.7332 34.8504 34.8498C34.6171 35.0832 34.2671 35.1332 33.9671 35.2165ZM25.1004 23.3332L33.8671 32.0998C34.9171 30.4832 35.4171 28.1832 35.4171 24.9998V14.9998C35.4171 14.3165 35.4004 13.6832 35.3504 13.0832L25.1004 23.3332Z" fill="#7E97B4"/>
<path d="M10.4497 37.4668C10.3497 37.4668 10.2664 37.4502 10.1664 37.4335C4.64968 36.1668 2.08301 32.2168 2.08301 25.0002V15.0002C2.08301 5.95016 5.94967 2.0835 14.9997 2.0835H24.9997C32.2163 2.0835 36.1663 4.65017 37.433 10.1668C37.533 10.5835 37.3997 11.0335 37.0997 11.3335L11.333 37.1002C11.0997 37.3335 10.783 37.4668 10.4497 37.4668ZM14.9997 4.5835C7.31634 4.5835 4.58301 7.31683 4.58301 15.0002V25.0002C4.58301 30.7835 6.18302 33.6835 10.0664 34.8335L34.8164 10.0835C33.683 6.20017 30.7663 4.60015 24.983 4.60015H14.9997V4.5835Z" fill="#7E97B4"/>
<path d="M24.9996 37.9166H14.9996C13.1663 37.9166 11.5997 37.7666 10.1663 37.4332C9.71632 37.3332 9.36629 36.9999 9.24963 36.5666C9.11629 36.1332 9.24963 35.6666 9.5663 35.3332L22.4496 22.4499C22.933 21.9666 23.733 21.9666 24.2163 22.4499L34.8497 33.0832C35.083 33.3166 35.2163 33.6332 35.2163 33.9666C35.2163 34.2999 35.083 34.6166 34.8497 34.8499C32.733 36.9499 29.6163 37.9166 24.9996 37.9166ZM13.083 35.3499C13.683 35.3999 14.3163 35.4166 14.9996 35.4166H24.9996C28.1996 35.4166 30.483 34.9166 32.0997 33.8666L23.333 25.0999L13.083 35.3499Z" fill="#7E97B4"/>
<path d="M15.2002 22.1832C14.1502 22.1832 13.1002 21.7999 12.2669 21.0166C9.61688 18.4999 8.55025 15.7333 9.18359 13.0333C9.81692 10.2666 12.2336 8.3999 15.2002 8.3999C18.1669 8.3999 20.5836 10.2666 21.2169 13.0333C21.8336 15.7499 20.7669 18.4999 18.1169 21.0166C17.3002 21.7832 16.2502 22.1832 15.2002 22.1832ZM11.6169 13.5832C11.0836 15.8499 12.6169 17.8833 14.0002 19.1999C14.6836 19.8499 15.7336 19.8499 16.4002 19.1999C17.7669 17.8999 19.3002 15.8666 18.7836 13.5832C18.3336 11.5999 16.5669 10.8832 15.2002 10.8832C13.8336 10.8832 12.0836 11.5999 11.6169 13.5832Z" fill="#7E97B4"/>
<path d="M15.2497 15.8167C14.333 15.8167 13.583 15.0667 13.583 14.1501C13.583 13.2334 14.3163 12.4834 15.2497 12.4834H15.2664C16.183 12.4834 16.933 13.2334 16.933 14.1501C16.933 15.0667 16.1663 15.8167 15.2497 15.8167Z" fill="#7E97B4"/>
</svg>
