<svg width="25" height="20" viewBox="0 0 25 20" fill="none" xmlns="../../../../../../external.html?link=http://www.w3.org/2000/svg">
<path d="M14.5878 0.480861C15.4822 0.145236 16.4788 -0.00195094 17.4172 0.230549C18.2502 0.427424 19.0302 0.794455 19.7905 1.18024C20.0614 1.07805 20.3333 0.977736 20.6052 0.876955C21.1953 0.66508 21.7625 0.393674 22.3475 0.169143C22.9456 -0.0530447 23.6811 0.36508 23.7781 0.999299C23.8573 1.41086 23.6497 1.79149 23.5016 2.15992C23.8934 2.34649 24.1395 2.75992 24.1602 3.18836V3.22586C24.1437 3.55071 24.0139 3.85352 23.8869 4.14836C23.54 4.93024 22.9803 5.62117 22.2636 6.09227C22.2162 8.45852 21.6247 10.8191 20.4988 12.9046C19.693 14.4112 18.613 15.7734 17.3169 16.8881C15.9725 18.0445 14.3891 18.9299 12.6861 19.4305C11.4369 19.8018 10.1272 19.9598 8.82594 19.9143C7.25562 19.8955 5.68297 19.762 4.14359 19.446C3.06688 19.2027 1.98266 18.8971 1.03812 18.3079C0.799531 18.1499 0.543125 17.9957 0.382812 17.751C0.254844 17.5724 0.186406 17.3587 0.160156 17.1421V17.008C0.176562 16.537 0.494375 16.1034 0.928437 15.928C1.15812 15.8268 1.41313 15.831 1.65875 15.8198C2.48937 15.7968 3.31766 15.6791 4.11828 15.4551C3.74609 15.2666 3.38188 15.0576 3.06172 14.7885C2.23859 14.121 1.67891 13.1755 1.35031 12.178C1.1825 11.6066 1.56312 10.9898 2.11437 10.8098C1.47875 10.0513 0.950469 9.19305 0.641094 8.24899C0.457813 7.84821 0.497187 7.3518 0.766719 6.9993C0.968281 6.72227 1.31094 6.59055 1.64188 6.55867C1.28703 5.75571 1.06859 4.88242 1.10656 4.00024C1.13328 2.96055 1.49562 1.95789 2.00891 1.06352C2.26062 0.662268 2.87328 0.577893 3.22531 0.895236C3.57219 1.21727 3.89891 1.56086 4.23781 1.8918C5.09703 2.69805 6.04531 3.4218 7.10234 3.94961C8.30422 4.57399 9.61578 4.94711 10.9302 5.25039C11.0342 4.41508 11.3033 3.59805 11.7434 2.87899C12.3955 1.79852 13.4052 0.928518 14.5878 0.480861ZM13.677 2.70274C12.8539 3.48649 12.3538 4.59602 12.3069 5.73133C12.2966 5.94508 12.3003 6.17336 12.1845 6.36227C12.0177 6.66367 11.6511 6.83477 11.3122 6.76539C10.8608 6.67305 10.4122 6.56852 9.96219 6.46914C9.54781 6.35758 9.13531 6.23899 8.72281 6.12133C8.3525 5.99524 7.985 5.86024 7.61656 5.72946C6.35094 5.23117 5.15797 4.53836 4.12063 3.65664C3.66781 3.31164 3.27453 2.89867 2.855 2.51571C2.60938 3.15086 2.46359 3.83571 2.53109 4.51867C2.60234 5.50211 3.07484 6.4157 3.69172 7.16711C3.84687 7.36211 4.00719 7.57961 4.00109 7.8407C4.01844 8.28883 3.61437 8.69992 3.16437 8.67883C2.81937 8.65352 2.50109 8.49883 2.18984 8.36008C2.70359 9.45555 3.52625 10.393 4.51297 11.0882C4.72813 11.2387 4.91562 11.4576 4.93906 11.729C5.00937 12.1771 4.64188 12.6304 4.18813 12.6501C3.76859 12.6599 3.35797 12.5507 2.96234 12.4227C3.20844 12.9065 3.52906 13.3616 3.9575 13.7015C4.42063 14.0868 4.98734 14.3282 5.56859 14.4716C5.75 14.5129 5.93469 14.5434 6.11141 14.6034C6.36172 14.6849 6.56047 14.8996 6.63078 15.1523C6.72125 15.4476 6.62094 15.7879 6.39031 15.9918C6.24969 16.1146 6.07578 16.1873 5.91031 16.2702C4.68172 16.8712 3.31766 17.1463 1.95828 17.2213C2.35766 17.4309 2.77391 17.6024 3.20187 17.744C4.78156 18.2334 6.43813 18.4129 8.08438 18.4907C8.92672 18.5127 9.77328 18.546 10.6109 18.4316C11.8208 18.2816 13.0025 17.9174 14.09 17.3676C15.9608 16.4245 17.5409 14.9474 18.687 13.1999C20.0844 11.0807 20.8227 8.54852 20.8545 6.01492C20.8583 5.78242 20.8541 5.53164 20.9867 5.32914C21.0955 5.1393 21.2947 5.03477 21.4705 4.91711C21.9744 4.61055 22.3386 4.12211 22.5936 3.59805C22.1445 3.66602 21.6903 3.32383 21.6486 2.86961C21.5952 2.45102 21.9214 2.13321 22.108 1.79383C21.3973 2.08586 20.6834 2.37227 19.9494 2.59961C19.6878 2.67414 19.4155 2.59211 19.1877 2.4618C18.687 2.19227 18.1728 1.94852 17.6361 1.76008C17.2859 1.65883 16.9372 1.5318 16.5687 1.52242C15.4986 1.51352 14.4425 1.9593 13.677 2.70274Z" fill="#FFC576"/>
</svg>
